<svg xmlns="http://www.w3.org/2000/svg" width="908" height="798" viewBox="0 0 908 798" font-family="'JetBrains Mono', ui-monospace, SFMono-Regular, Menlo, Consolas, monospace" font-size="12" shape-rendering="crispEdges">
<defs>
<pattern id="hatch-x-single" width="5.6569" height="5.6569" patternUnits="userSpaceOnUse" patternTransform="rotate(45)"><rect width="5.65685424949238" height="5.65685424949238" fill="rgb(27,29,33)"/><rect width="1.8856" height="5.6569" fill="rgb(245,114,114)"/></pattern>
<pattern id="hatch-z-single" width="5.6569" height="5.6569" patternUnits="userSpaceOnUse" patternTransform="rotate(45)"><rect width="5.65685424949238" height="5.65685424949238" fill="rgb(27,29,33)"/><rect width="1.8856" height="5.6569" fill="rgb(255,220,0)"/></pattern>
<pattern id="hatch-x-multi" width="5.6569" height="5.6569" patternUnits="userSpaceOnUse" patternTransform="rotate(45)"><rect width="5.65685424949238" height="5.65685424949238" fill="rgb(27,29,33)"/><rect width="1.8856" height="5.6569" fill="rgb(180,89,90)"/></pattern>
<pattern id="hatch-z-multi" width="5.6569" height="5.6569" patternUnits="userSpaceOnUse" patternTransform="rotate(45)"><rect width="5.65685424949238" height="5.65685424949238" fill="rgb(27,29,33)"/><rect width="1.8856" height="5.6569" fill="rgb(187,163,10)"/></pattern>
<pattern id="hatch-mute" width="5.6569" height="5.6569" patternUnits="userSpaceOnUse" patternTransform="rotate(45)"><rect width="5.65685424949238" height="5.65685424949238" fill="rgb(27,29,33)"/><rect width="1.8856" height="5.6569" fill="rgb(83,84,85)"/></pattern>
<pattern id="hatch-dead" width="5.6569" height="5.6569" patternUnits="userSpaceOnUse" patternTransform="rotate(45)"><rect width="1.1314" height="5.6569" fill="rgb(68,71,77)"/></pattern>
<pattern id="hatch-reset" width="5.6569" height="5.6569" patternUnits="userSpaceOnUse" patternTransform="rotate(45)"><rect width="1.1314" height="5.6569" fill="rgb(109,63,60)"/></pattern>
</defs>
<rect width="908" height="798" fill="rgb(27,29,33)"/>
<line x1="50.444" y1="8" x2="50.444" y2="798" stroke="rgb(134,140,150)" stroke-opacity="0.439" stroke-width="2.5" stroke-dasharray="4.8 3.2"/>
<line x1="151.333" y1="8" x2="151.333" y2="798" stroke="rgb(134,140,150)" stroke-opacity="0.439" stroke-width="2.5" stroke-dasharray="4.8 3.2"/>
<line x1="252.222" y1="8" x2="252.222" y2="798" stroke="rgb(134,140,150)" stroke-opacity="0.439" stroke-width="2.5" stroke-dasharray="4.8 3.2"/>
<line x1="353.111" y1="8" x2="353.111" y2="798" stroke="rgb(134,140,150)" stroke-opacity="0.439" stroke-width="2.5" stroke-dasharray="4.8 3.2"/>
<line x1="454.000" y1="8" x2="454.000" y2="798" stroke="rgb(134,140,150)" stroke-opacity="0.439" stroke-width="2.5" stroke-dasharray="4.8 3.2"/>
<line x1="554.889" y1="8" x2="554.889" y2="798" stroke="rgb(134,140,150)" stroke-opacity="0.439" stroke-width="2.5" stroke-dasharray="4.8 3.2"/>
<line x1="655.778" y1="8" x2="655.778" y2="798" stroke="rgb(134,140,150)" stroke-opacity="0.439" stroke-width="2.5" stroke-dasharray="4.8 3.2"/>
<line x1="756.667" y1="8" x2="756.667" y2="798" stroke="rgb(134,140,150)" stroke-opacity="0.439" stroke-width="2.5" stroke-dasharray="4.8 3.2"/>
<line x1="857.556" y1="8" x2="857.556" y2="798" stroke="rgb(134,140,150)" stroke-opacity="0.439" stroke-width="2.5" stroke-dasharray="4.8 3.2"/>
<rect width="908" height="28" fill="#22252A"/>
<rect y="27" width="908" height="1" fill="#2F333A"/>
<rect x="-1.00" y="16" width="2" height="12" fill="#868C96"/>
<rect x="99.89" y="16" width="2" height="12" fill="#868C96"/>
<rect x="200.78" y="16" width="2" height="12" fill="#868C96"/>
<rect x="301.67" y="16" width="2" height="12" fill="#868C96"/>
<rect x="402.56" y="16" width="2" height="12" fill="#868C96"/>
<rect x="503.44" y="16" width="2" height="12" fill="#868C96"/>
<rect x="604.33" y="16" width="2" height="12" fill="#868C96"/>
<rect x="705.22" y="16" width="2" height="12" fill="#868C96"/>
<rect x="806.11" y="16" width="2" height="12" fill="#868C96"/>
<rect x="907.00" y="16" width="2" height="12" fill="#868C96"/>
<rect y="774" width="908" height="24" fill="#22252A"/>
<rect y="774" width="908" height="1" fill="#2F333A"/>
<rect x="-1.00" y="786" width="2" height="12" fill="#868C96"/>
<rect x="99.89" y="786" width="2" height="12" fill="#868C96"/>
<rect x="200.78" y="786" width="2" height="12" fill="#868C96"/>
<rect x="301.67" y="786" width="2" height="12" fill="#868C96"/>
<rect x="402.56" y="786" width="2" height="12" fill="#868C96"/>
<rect x="503.44" y="786" width="2" height="12" fill="#868C96"/>
<rect x="604.33" y="786" width="2" height="12" fill="#868C96"/>
<rect x="705.22" y="786" width="2" height="12" fill="#868C96"/>
<rect x="806.11" y="786" width="2" height="12" fill="#868C96"/>
<rect x="907.00" y="786" width="2" height="12" fill="#868C96"/>
<rect x="0" y="774" width="100.89" height="24" fill="url(#hatch-reset)"/>
<text x="50.44" y="780.00" fill="#F06B5B" font-size="10" text-anchor="middle" dominant-baseline="central" shape-rendering="geometricPrecision">RESET</text>
<rect x="0" y="52" width="50.44444444444445" height="2" fill="#72F5DF"/>
<rect x="48.44444444444445" y="30" width="2" height="24" fill="#72F5DF"/>
<rect x="50.44444444444445" y="30" width="50.44444444444445" height="2" fill="#72F5DF"/>
<rect x="98.8888888888889" y="30" width="2" height="24" fill="#72F5DF"/>
<rect x="100.8888888888889" y="52" width="50.44444444444444" height="2" fill="#72F5DF"/>
<rect x="149.33333333333334" y="30" width="2" height="24" fill="#72F5DF"/>
<rect x="151.33333333333334" y="30" width="50.44444444444446" height="2" fill="#72F5DF"/>
<rect x="199.7777777777778" y="30" width="2" height="24" fill="#72F5DF"/>
<rect x="201.7777777777778" y="52" width="50.44444444444443" height="2" fill="#72F5DF"/>
<rect x="250.22222222222223" y="30" width="2" height="24" fill="#72F5DF"/>
<rect x="252.22222222222223" y="30" width="50.44444444444446" height="2" fill="#72F5DF"/>
<rect x="300.6666666666667" y="30" width="2" height="24" fill="#72F5DF"/>
<rect x="302.6666666666667" y="52" width="50.44444444444446" height="2" fill="#72F5DF"/>
<rect x="351.11111111111114" y="30" width="2" height="24" fill="#72F5DF"/>
<rect x="353.11111111111114" y="30" width="50.44444444444446" height="2" fill="#72F5DF"/>
<rect x="401.5555555555556" y="30" width="2" height="24" fill="#72F5DF"/>
<rect x="403.5555555555556" y="52" width="50.44444444444446" height="2" fill="#72F5DF"/>
<rect x="452.00000000000006" y="30" width="2" height="24" fill="#72F5DF"/>
<rect x="454.00000000000006" y="30" width="50.4444444444444" height="2" fill="#72F5DF"/>
<rect x="502.44444444444446" y="30" width="2" height="24" fill="#72F5DF"/>
<rect x="504.44444444444446" y="52" width="50.44444444444446" height="2" fill="#72F5DF"/>
<rect x="552.8888888888889" y="30" width="2" height="24" fill="#72F5DF"/>
<rect x="554.8888888888889" y="30" width="50.44444444444446" height="2" fill="#72F5DF"/>
<rect x="603.3333333333334" y="30" width="2" height="24" fill="#72F5DF"/>
<rect x="605.3333333333334" y="52" width="50.44444444444446" height="2" fill="#72F5DF"/>
<rect x="653.7777777777778" y="30" width="2" height="24" fill="#72F5DF"/>
<rect x="655.7777777777778" y="30" width="50.44444444444446" height="2" fill="#72F5DF"/>
<rect x="704.2222222222223" y="30" width="2" height="24" fill="#72F5DF"/>
<rect x="706.2222222222223" y="52" width="50.44444444444446" height="2" fill="#72F5DF"/>
<rect x="754.6666666666667" y="30" width="2" height="24" fill="#72F5DF"/>
<rect x="756.6666666666667" y="30" width="50.44444444444446" height="2" fill="#72F5DF"/>
<rect x="805.1111111111112" y="30" width="2" height="24" fill="#72F5DF"/>
<rect x="807.1111111111112" y="52" width="50.44444444444446" height="2" fill="#72F5DF"/>
<rect x="855.5555555555557" y="30" width="2" height="24" fill="#72F5DF"/>
<rect x="857.5555555555557" y="30" width="50.44444444444446" height="2" fill="#72F5DF"/>
<rect x="0" y="58" width="100.8888888888889" height="24" fill="rgb(176,84,74)"/>
<rect x="0" y="58" width="100.8888888888889" height="2" fill="#F06B5B"/>
<rect x="98.8888888888889" y="58" width="2" height="24" fill="#F06B5B"/>
<rect x="100.8888888888889" y="58" width="807.1111111111112" height="24" fill="rgb(70,45,45)"/>
<rect x="100.8888888888889" y="80" width="807.1111111111112" height="2" fill="#F06B5B"/>
<rect x="0" y="86" width="149.33333333333334" height="24" rx="4" ry="4" fill="url(#hatch-x-multi)" stroke="rgb(180,89,90)" stroke-width="2" shape-rendering="geometricPrecision"/>
<text x="74.67" y="98.50" fill="#FFFFFF" font-weight="700" text-anchor="middle" dominant-baseline="central" shape-rendering="geometricPrecision">X</text>
<rect x="151.33333333333334" y="86" width="199.7777777777778" height="24" rx="4" ry="4" fill="rgb(180,140,255)" stroke="#B48CFF" stroke-width="2" shape-rendering="geometricPrecision"/>
<text x="251.22" y="98.50" fill="#FFFFFF" font-weight="700" text-anchor="middle" dominant-baseline="central" shape-rendering="geometricPrecision">IDLE</text>
<rect x="353.11111111111114" y="86" width="98.88888888888891" height="24" rx="4" ry="4" fill="rgb(180,140,255)" stroke="#B48CFF" stroke-width="2" shape-rendering="geometricPrecision"/>
<text x="402.56" y="98.50" fill="#FFFFFF" font-weight="700" text-anchor="middle" dominant-baseline="central" shape-rendering="geometricPrecision">BUSY</text>
<rect x="454.00000000000006" y="86" width="199.77777777777777" height="24" rx="4" ry="4" fill="rgb(180,140,255)" stroke="#B48CFF" stroke-width="2" shape-rendering="geometricPrecision"/>
<text x="553.89" y="98.50" fill="#FFFFFF" font-weight="700" text-anchor="middle" dominant-baseline="central" shape-rendering="geometricPrecision">WAIT</text>
<rect x="655.7777777777778" y="86" width="98.88888888888891" height="24" rx="4" ry="4" fill="rgb(180,140,255)" stroke="#B48CFF" stroke-width="2" shape-rendering="geometricPrecision"/>
<text x="705.22" y="98.50" fill="#FFFFFF" font-weight="700" text-anchor="middle" dominant-baseline="central" shape-rendering="geometricPrecision">BUSY</text>
<rect x="756.6666666666667" y="86" width="149.33333333333337" height="24" rx="4" ry="4" fill="rgb(180,140,255)" stroke="#B48CFF" stroke-width="2" shape-rendering="geometricPrecision"/>
<text x="831.33" y="98.50" fill="#FFFFFF" font-weight="700" text-anchor="middle" dominant-baseline="central" shape-rendering="geometricPrecision">IDLE</text>
<rect x="0" y="114" width="149.33333333333334" height="24" rx="4" ry="4" fill="url(#hatch-x-multi)" stroke="rgb(180,89,90)" stroke-width="2" shape-rendering="geometricPrecision"/>
<text x="74.67" y="126.50" fill="#FFFFFF" font-weight="700" text-anchor="middle" dominant-baseline="central" shape-rendering="geometricPrecision">X</text>
<rect x="151.33333333333334" y="114" width="98.88888888888889" height="24" rx="4" ry="4" fill="rgb(134,107,188)" stroke="#B48CFF" stroke-width="2" shape-rendering="geometricPrecision"/>
<text x="200.78" y="126.50" fill="#FFFFFF" font-weight="700" text-anchor="middle" dominant-baseline="central" shape-rendering="geometricPrecision">0</text>
<rect x="252.22222222222223" y="114" width="98.88888888888891" height="24" rx="4" ry="4" fill="rgb(134,107,188)" stroke="#B48CFF" stroke-width="2" shape-rendering="geometricPrecision"/>
<text x="301.67" y="126.50" fill="#FFFFFF" font-weight="700" text-anchor="middle" dominant-baseline="central" shape-rendering="geometricPrecision">1</text>
<rect x="353.11111111111114" y="114" width="98.88888888888891" height="24" rx="4" ry="4" fill="rgb(134,107,188)" stroke="#B48CFF" stroke-width="2" shape-rendering="geometricPrecision"/>
<text x="402.56" y="126.50" fill="#FFFFFF" font-weight="700" text-anchor="middle" dominant-baseline="central" shape-rendering="geometricPrecision">2</text>
<rect x="454.00000000000006" y="114" width="98.88888888888886" height="24" rx="4" ry="4" fill="rgb(134,107,188)" stroke="#B48CFF" stroke-width="2" shape-rendering="geometricPrecision"/>
<text x="503.44" y="126.50" fill="#FFFFFF" font-weight="700" text-anchor="middle" dominant-baseline="central" shape-rendering="geometricPrecision">3</text>
<rect x="554.8888888888889" y="114" width="98.88888888888891" height="24" rx="4" ry="4" fill="rgb(134,107,188)" stroke="#B48CFF" stroke-width="2" shape-rendering="geometricPrecision"/>
<text x="604.33" y="126.50" fill="#FFFFFF" font-weight="700" text-anchor="middle" dominant-baseline="central" shape-rendering="geometricPrecision">4</text>
<rect x="655.7777777777778" y="114" width="98.88888888888891" height="24" rx="4" ry="4" fill="rgb(134,107,188)" stroke="#B48CFF" stroke-width="2" shape-rendering="geometricPrecision"/>
<text x="705.22" y="126.50" fill="#FFFFFF" font-weight="700" text-anchor="middle" dominant-baseline="central" shape-rendering="geometricPrecision">5</text>
<rect x="756.6666666666667" y="114" width="98.88888888888891" height="24" rx="4" ry="4" fill="rgb(134,107,188)" stroke="#B48CFF" stroke-width="2" shape-rendering="geometricPrecision"/>
<text x="806.11" y="126.50" fill="#FFFFFF" font-weight="700" text-anchor="middle" dominant-baseline="central" shape-rendering="geometricPrecision">6</text>
<rect x="857.5555555555557" y="114" width="48.44444444444446" height="24" rx="4" ry="4" fill="rgb(134,107,188)" stroke="#B48CFF" stroke-width="2" shape-rendering="geometricPrecision"/>
<text x="881.78" y="126.50" fill="#FFFFFF" font-weight="700" text-anchor="middle" dominant-baseline="central" shape-rendering="geometricPrecision">7</text>
<rect x="0" y="142" width="252.22222222222223" height="24" fill="rgb(70,56,57)"/>
<rect x="0" y="164" width="252.22222222222223" height="2" fill="#F4A698"/>
<rect x="250.22222222222223" y="142" width="2" height="24" fill="#F4A698"/>
<rect x="252.22222222222223" y="142" width="201.77777777777783" height="24" fill="rgb(179,125,116)"/>
<rect x="252.22222222222223" y="142" width="201.77777777777783" height="2" fill="#F4A698"/>
<rect x="452.00000000000006" y="142" width="2" height="24" fill="#F4A698"/>
<rect x="454.00000000000006" y="142" width="100.88888888888886" height="24" fill="rgb(70,56,57)"/>
<rect x="454.00000000000006" y="164" width="100.88888888888886" height="2" fill="#F4A698"/>
<rect x="552.8888888888889" y="142" width="2" height="24" fill="#F4A698"/>
<rect x="554.8888888888889" y="142" width="201.77777777777783" height="24" fill="rgb(179,125,116)"/>
<rect x="554.8888888888889" y="142" width="201.77777777777783" height="2" fill="#F4A698"/>
<rect x="754.6666666666667" y="142" width="2" height="24" fill="#F4A698"/>
<rect x="756.6666666666667" y="142" width="151.33333333333337" height="24" fill="rgb(70,56,57)"/>
<rect x="756.6666666666667" y="164" width="151.33333333333337" height="2" fill="#F4A698"/>
<rect x="0" y="170" width="250.22222222222223" height="24" rx="4" ry="4" fill="url(#hatch-mute)" stroke="rgb(83,84,85)" stroke-width="2" shape-rendering="geometricPrecision"/>
<rect x="252.22222222222223" y="170" width="199.77777777777783" height="24" rx="4" ry="4" fill="rgb(179,125,116)" stroke="#F4A698" stroke-width="2" shape-rendering="geometricPrecision"/>
<text x="352.11" y="182.50" fill="#FFFFFF" font-weight="700" text-anchor="middle" dominant-baseline="central" shape-rendering="geometricPrecision">0xA3</text>
<rect x="454.00000000000006" y="170" width="98.88888888888886" height="24" rx="4" ry="4" fill="url(#hatch-mute)" stroke="rgb(83,84,85)" stroke-width="2" shape-rendering="geometricPrecision"/>
<rect x="554.8888888888889" y="170" width="199.77777777777783" height="24" rx="4" ry="4" fill="rgb(179,125,116)" stroke="#F4A698" stroke-width="2" shape-rendering="geometricPrecision"/>
<text x="654.78" y="182.50" fill="#FFFFFF" font-weight="700" text-anchor="middle" dominant-baseline="central" shape-rendering="geometricPrecision">0xB7</text>
<rect x="756.6666666666667" y="170" width="149.33333333333337" height="24" rx="4" ry="4" fill="url(#hatch-mute)" stroke="rgb(83,84,85)" stroke-width="2" shape-rendering="geometricPrecision"/>
<rect x="0" y="198" width="250.22222222222223" height="24" rx="4" ry="4" fill="url(#hatch-mute)" stroke="rgb(83,84,85)" stroke-width="2" shape-rendering="geometricPrecision"/>
<rect x="252.22222222222223" y="198" width="98.88888888888891" height="24" rx="4" ry="4" fill="rgb(179,125,116)" stroke="#F4A698" stroke-width="2" shape-rendering="geometricPrecision"/>
<text x="301.67" y="210.50" fill="#FFFFFF" font-weight="700" text-anchor="middle" dominant-baseline="central" shape-rendering="geometricPrecision">0x1000</text>
<rect x="353.11111111111114" y="198" width="98.88888888888891" height="24" rx="4" ry="4" fill="rgb(179,125,116)" stroke="#F4A698" stroke-width="2" shape-rendering="geometricPrecision"/>
<text x="402.56" y="210.50" fill="#FFFFFF" font-weight="700" text-anchor="middle" dominant-baseline="central" shape-rendering="geometricPrecision">0x1004</text>
<rect x="454.00000000000006" y="198" width="98.88888888888886" height="24" rx="4" ry="4" fill="url(#hatch-mute)" stroke="rgb(83,84,85)" stroke-width="2" shape-rendering="geometricPrecision"/>
<rect x="554.8888888888889" y="198" width="98.88888888888891" height="24" rx="4" ry="4" fill="rgb(179,125,116)" stroke="#F4A698" stroke-width="2" shape-rendering="geometricPrecision"/>
<text x="604.33" y="210.50" fill="#FFFFFF" font-weight="700" text-anchor="middle" dominant-baseline="central" shape-rendering="geometricPrecision">0x1008</text>
<rect x="655.7777777777778" y="198" width="98.88888888888891" height="24" rx="4" ry="4" fill="rgb(179,125,116)" stroke="#F4A698" stroke-width="2" shape-rendering="geometricPrecision"/>
<text x="705.22" y="210.50" fill="#FFFFFF" font-weight="700" text-anchor="middle" dominant-baseline="central" shape-rendering="geometricPrecision">0x100C</text>
<rect x="756.6666666666667" y="198" width="149.33333333333337" height="24" rx="4" ry="4" fill="url(#hatch-mute)" stroke="rgb(83,84,85)" stroke-width="2" shape-rendering="geometricPrecision"/>
<rect x="0" y="226" width="454.00000000000006" height="24" fill="rgb(39,63,54)"/>
<rect x="0" y="248" width="454.00000000000006" height="2" fill="#57C88A"/>
<rect x="452.00000000000006" y="226" width="2" height="24" fill="#57C88A"/>
<rect x="454.00000000000006" y="226" width="403.5555555555556" height="24" fill="rgb(69,149,107)"/>
<rect x="454.00000000000006" y="226" width="403.5555555555556" height="2" fill="#57C88A"/>
<rect x="855.5555555555557" y="226" width="2" height="24" fill="#57C88A"/>
<rect x="857.5555555555557" y="226" width="50.44444444444446" height="24" fill="rgb(39,63,54)"/>
<rect x="857.5555555555557" y="248" width="50.44444444444446" height="2" fill="#57C88A"/>
<rect x="0" y="254" width="452.00000000000006" height="24" rx="4" ry="4" fill="url(#hatch-mute)" stroke="rgb(83,84,85)" stroke-width="2" shape-rendering="geometricPrecision"/>
<rect x="454.00000000000006" y="254" width="199.77777777777777" height="24" rx="4" ry="4" fill="rgb(69,149,107)" stroke="#57C88A" stroke-width="2" shape-rendering="geometricPrecision"/>
<text x="553.89" y="266.50" fill="#FFFFFF" font-weight="700" text-anchor="middle" dominant-baseline="central" shape-rendering="geometricPrecision">0xDEADBEEF</text>
<rect x="655.7777777777778" y="254" width="199.77777777777783" height="24" rx="4" ry="4" fill="rgb(69,149,107)" stroke="#57C88A" stroke-width="2" shape-rendering="geometricPrecision"/>
<text x="755.67" y="266.50" fill="#FFFFFF" font-weight="700" text-anchor="middle" dominant-baseline="central" shape-rendering="geometricPrecision">0xCAFEB0BA</text>
<rect x="857.5555555555557" y="254" width="48.44444444444446" height="24" rx="4" ry="4" fill="url(#hatch-mute)" stroke="rgb(83,84,85)" stroke-width="2" shape-rendering="geometricPrecision"/>
<rect x="0" y="282" width="149.33333333333334" height="24" rx="4" ry="4" fill="url(#hatch-x-multi)" stroke="rgb(180,89,90)" stroke-width="2" shape-rendering="geometricPrecision"/>
<text x="74.67" y="294.50" fill="#FFFFFF" font-weight="700" text-anchor="middle" dominant-baseline="central" shape-rendering="geometricPrecision">X</text>
<rect x="151.33333333333334" y="282" width="98.88888888888889" height="24" rx="4" ry="4" fill="rgb(169,133,65)" stroke="#E6B14E" stroke-width="2" shape-rendering="geometricPrecision"/>
<text x="200.78" y="294.50" fill="#FFFFFF" font-weight="700" text-anchor="middle" dominant-baseline="central" shape-rendering="geometricPrecision">0</text>
<rect x="252.22222222222223" y="282" width="98.88888888888891" height="24" rx="4" ry="4" fill="rgb(169,133,65)" stroke="#E6B14E" stroke-width="2" shape-rendering="geometricPrecision"/>
<text x="301.67" y="294.50" fill="#FFFFFF" font-weight="700" text-anchor="middle" dominant-baseline="central" shape-rendering="geometricPrecision">1</text>
<rect x="353.11111111111114" y="282" width="300.6666666666667" height="24" rx="4" ry="4" fill="rgb(169,133,65)" stroke="#E6B14E" stroke-width="2" shape-rendering="geometricPrecision"/>
<text x="503.44" y="294.50" fill="#FFFFFF" font-weight="700" text-anchor="middle" dominant-baseline="central" shape-rendering="geometricPrecision">2</text>
<rect x="655.7777777777778" y="282" width="98.88888888888891" height="24" rx="4" ry="4" fill="rgb(169,133,65)" stroke="#E6B14E" stroke-width="2" shape-rendering="geometricPrecision"/>
<text x="705.22" y="294.50" fill="#FFFFFF" font-weight="700" text-anchor="middle" dominant-baseline="central" shape-rendering="geometricPrecision">1</text>
<rect x="756.6666666666667" y="282" width="149.33333333333337" height="24" rx="4" ry="4" fill="rgb(169,133,65)" stroke="#E6B14E" stroke-width="2" shape-rendering="geometricPrecision"/>
<text x="831.33" y="294.50" fill="#FFFFFF" font-weight="700" text-anchor="middle" dominant-baseline="central" shape-rendering="geometricPrecision">0</text>
<rect x="0" y="310" width="151.33333333333334" height="24" fill="url(#hatch-x-single)"/>
<rect x="151.33333333333334" y="310" width="100.88888888888889" height="24" fill="rgb(169,133,65)"/>
<rect x="151.33333333333334" y="310" width="100.88888888888889" height="2" fill="#E6B14E"/>
<rect x="250.22222222222223" y="310" width="2" height="24" fill="#E6B14E"/>
<rect x="252.22222222222223" y="310" width="504.4444444444445" height="24" fill="rgb(68,59,42)"/>
<rect x="252.22222222222223" y="332" width="504.4444444444445" height="2" fill="#E6B14E"/>
<rect x="754.6666666666667" y="310" width="2" height="24" fill="#E6B14E"/>
<rect x="756.6666666666667" y="310" width="151.33333333333337" height="24" fill="rgb(169,133,65)"/>
<rect x="756.6666666666667" y="310" width="151.33333333333337" height="2" fill="#E6B14E"/>
<rect x="0" y="338" width="149.33333333333334" height="24" rx="4" ry="4" fill="url(#hatch-x-multi)" stroke="rgb(180,89,90)" stroke-width="2" shape-rendering="geometricPrecision"/>
<text x="74.67" y="350.50" fill="#FFFFFF" font-weight="700" text-anchor="middle" dominant-baseline="central" shape-rendering="geometricPrecision">X</text>
<rect x="151.33333333333334" y="338" width="98.88888888888889" height="24" rx="4" ry="4" fill="url(#hatch-z-multi)" stroke="rgb(187,163,10)" stroke-width="2" shape-rendering="geometricPrecision"/>
<text x="200.78" y="350.50" fill="#FFFFFF" font-weight="700" text-anchor="middle" dominant-baseline="central" shape-rendering="geometricPrecision">Z</text>
<rect x="252.22222222222223" y="338" width="199.77777777777783" height="24" rx="4" ry="4" fill="rgb(63,156,142)" stroke="#4FD2BD" stroke-width="2" shape-rendering="geometricPrecision"/>
<text x="352.11" y="350.50" fill="#FFFFFF" font-weight="700" text-anchor="middle" dominant-baseline="central" shape-rendering="geometricPrecision">0x55</text>
<rect x="454.00000000000006" y="338" width="98.88888888888886" height="24" rx="4" ry="4" fill="url(#hatch-z-multi)" stroke="rgb(187,163,10)" stroke-width="2" shape-rendering="geometricPrecision"/>
<text x="503.44" y="350.50" fill="#FFFFFF" font-weight="700" text-anchor="middle" dominant-baseline="central" shape-rendering="geometricPrecision">Z</text>
<rect x="554.8888888888889" y="338" width="199.77777777777783" height="24" rx="4" ry="4" fill="rgb(63,156,142)" stroke="#4FD2BD" stroke-width="2" shape-rendering="geometricPrecision"/>
<text x="654.78" y="350.50" fill="#FFFFFF" font-weight="700" text-anchor="middle" dominant-baseline="central" shape-rendering="geometricPrecision">0xF0</text>
<rect x="756.6666666666667" y="338" width="149.33333333333337" height="24" rx="4" ry="4" fill="url(#hatch-z-multi)" stroke="rgb(187,163,10)" stroke-width="2" shape-rendering="geometricPrecision"/>
<text x="831.33" y="350.50" fill="#FFFFFF" font-weight="700" text-anchor="middle" dominant-baseline="central" shape-rendering="geometricPrecision">Z</text>
<rect x="0" y="366" width="252.22222222222223" height="24" fill="rgb(37,65,64)"/>
<rect x="0" y="388" width="252.22222222222223" height="2" fill="#4FD2BD"/>
<rect x="250.22222222222223" y="366" width="2" height="24" fill="#4FD2BD"/>
<rect x="252.22222222222223" y="366" width="605.3333333333335" height="24" fill="rgb(63,156,142)"/>
<rect x="252.22222222222223" y="366" width="605.3333333333335" height="2" fill="#4FD2BD"/>
<rect x="855.5555555555557" y="366" width="2" height="24" fill="#4FD2BD"/>
<rect x="857.5555555555557" y="366" width="50.44444444444446" height="24" fill="rgb(37,65,64)"/>
<rect x="857.5555555555557" y="388" width="50.44444444444446" height="2" fill="#4FD2BD"/>
<rect x="0" y="394" width="756.6666666666667" height="24" fill="rgb(37,65,64)"/>
<rect x="0" y="416" width="756.6666666666667" height="2" fill="#4FD2BD"/>
<rect x="754.6666666666667" y="394" width="2" height="24" fill="#4FD2BD"/>
<rect x="756.6666666666667" y="394" width="100.88888888888891" height="24" fill="rgb(63,156,142)"/>
<rect x="756.6666666666667" y="394" width="100.88888888888891" height="2" fill="#4FD2BD"/>
<rect x="855.5555555555557" y="394" width="2" height="24" fill="#4FD2BD"/>
<rect x="857.5555555555557" y="394" width="50.44444444444446" height="24" fill="rgb(37,65,64)"/>
<rect x="857.5555555555557" y="416" width="50.44444444444446" height="2" fill="#4FD2BD"/>
<polyline points="44.30,36.13 49.44,30.00 54.59,36.13" fill="none" stroke="#72F5DF" stroke-width="2" stroke-linejoin="round" stroke-linecap="round" shape-rendering="geometricPrecision"/>
<polyline points="145.19,36.13 150.33,30.00 155.48,36.13" fill="none" stroke="#72F5DF" stroke-width="2" stroke-linejoin="round" stroke-linecap="round" shape-rendering="geometricPrecision"/>
<polyline points="246.08,36.13 251.22,30.00 256.36,36.13" fill="none" stroke="#72F5DF" stroke-width="2" stroke-linejoin="round" stroke-linecap="round" shape-rendering="geometricPrecision"/>
<polyline points="346.97,36.13 352.11,30.00 357.25,36.13" fill="none" stroke="#72F5DF" stroke-width="2" stroke-linejoin="round" stroke-linecap="round" shape-rendering="geometricPrecision"/>
<polyline points="447.86,36.13 453.00,30.00 458.14,36.13" fill="none" stroke="#72F5DF" stroke-width="2" stroke-linejoin="round" stroke-linecap="round" shape-rendering="geometricPrecision"/>
<polyline points="548.75,36.13 553.89,30.00 559.03,36.13" fill="none" stroke="#72F5DF" stroke-width="2" stroke-linejoin="round" stroke-linecap="round" shape-rendering="geometricPrecision"/>
<polyline points="649.64,36.13 654.78,30.00 659.92,36.13" fill="none" stroke="#72F5DF" stroke-width="2" stroke-linejoin="round" stroke-linecap="round" shape-rendering="geometricPrecision"/>
<polyline points="750.52,36.13 755.67,30.00 760.81,36.13" fill="none" stroke="#72F5DF" stroke-width="2" stroke-linejoin="round" stroke-linecap="round" shape-rendering="geometricPrecision"/>
<polyline points="851.41,36.13 856.56,30.00 861.70,36.13" fill="none" stroke="#72F5DF" stroke-width="2" stroke-linejoin="round" stroke-linecap="round" shape-rendering="geometricPrecision"/>
<text x="5" y="16" fill="#C4C3BB" font-size="10" dominant-baseline="middle" shape-rendering="geometricPrecision">0 ns</text>
<text x="5" y="788" fill="#C4C3BB" font-size="10" dominant-baseline="middle" shape-rendering="geometricPrecision">0 ns</text>
<text x="106" y="16" fill="#C4C3BB" font-size="10" dominant-baseline="middle" shape-rendering="geometricPrecision">10 ns</text>
<text x="106" y="788" fill="#C4C3BB" font-size="10" dominant-baseline="middle" shape-rendering="geometricPrecision">10 ns</text>
<text x="207" y="16" fill="#C4C3BB" font-size="10" dominant-baseline="middle" shape-rendering="geometricPrecision">20 ns</text>
<text x="207" y="788" fill="#C4C3BB" font-size="10" dominant-baseline="middle" shape-rendering="geometricPrecision">20 ns</text>
<text x="308" y="16" fill="#C4C3BB" font-size="10" dominant-baseline="middle" shape-rendering="geometricPrecision">30 ns</text>
<text x="308" y="788" fill="#C4C3BB" font-size="10" dominant-baseline="middle" shape-rendering="geometricPrecision">30 ns</text>
<text x="409" y="16" fill="#C4C3BB" font-size="10" dominant-baseline="middle" shape-rendering="geometricPrecision">40 ns</text>
<text x="409" y="788" fill="#C4C3BB" font-size="10" dominant-baseline="middle" shape-rendering="geometricPrecision">40 ns</text>
<text x="509" y="16" fill="#C4C3BB" font-size="10" dominant-baseline="middle" shape-rendering="geometricPrecision">50 ns</text>
<text x="509" y="788" fill="#C4C3BB" font-size="10" dominant-baseline="middle" shape-rendering="geometricPrecision">50 ns</text>
<text x="610" y="16" fill="#C4C3BB" font-size="10" dominant-baseline="middle" shape-rendering="geometricPrecision">60 ns</text>
<text x="610" y="788" fill="#C4C3BB" font-size="10" dominant-baseline="middle" shape-rendering="geometricPrecision">60 ns</text>
<text x="711" y="16" fill="#C4C3BB" font-size="10" dominant-baseline="middle" shape-rendering="geometricPrecision">70 ns</text>
<text x="711" y="788" fill="#C4C3BB" font-size="10" dominant-baseline="middle" shape-rendering="geometricPrecision">70 ns</text>
<text x="812" y="16" fill="#C4C3BB" font-size="10" dominant-baseline="middle" shape-rendering="geometricPrecision">80 ns</text>
<text x="812" y="788" fill="#C4C3BB" font-size="10" dominant-baseline="middle" shape-rendering="geometricPrecision">80 ns</text>
<text x="913" y="16" fill="#C4C3BB" font-size="10" dominant-baseline="middle" shape-rendering="geometricPrecision">90 ns</text>
<text x="913" y="788" fill="#C4C3BB" font-size="10" dominant-baseline="middle" shape-rendering="geometricPrecision">90 ns</text>
<line x1="309.056" y1="8" x2="309.056" y2="798" stroke="#F06B5B" stroke-width="2.5"/>
<path d="M310.81,0.00 H362.81 A3,3 0 0 1 365.81,3.00 V11.00 A3,3 0 0 1 362.81,14.00 H307.81 H307.81 V3.00 A3,3 0 0 1 310.81,0.00 Z" fill="#F06B5B" shape-rendering="geometricPrecision"/>
<text x="312.81" y="7.00" fill="#0F1A09" font-size="10" dominant-baseline="central" shape-rendering="geometricPrecision">30.63 ns</text>
</svg>